# Blender 3.5.0
# www.blender.org
mtllib spikeball.mtl
o ICO球
v 0.000000 -1.757888 0.000000
v 0.723607 -0.447220 0.525725
v -0.276388 -0.447220 0.850649
v -2.064685 -0.447216 0.000000
v -0.276388 -0.447220 -1.620863
v 0.723607 -0.447220 -0.525725
v 0.276388 0.447220 1.925848
v -0.723607 0.447220 0.525725
v -0.723607 0.447220 -0.525725
v 0.276388 0.447220 -0.850649
v 1.818830 0.447216 0.000000
v 0.000000 1.754881 0.000000
v -0.162456 -0.850654 0.499995
v 0.425323 -0.850654 0.309011
v 0.262869 -0.525738 1.813804
v 1.838290 -0.525736 0.000000
v 0.425323 -0.850654 -0.309011
v -0.525730 -0.850652 0.000000
v -0.688189 -0.525736 0.499997
v -0.162456 -0.850654 -0.499995
v -0.688189 -0.525736 -0.499997
v 0.262869 -0.525738 -0.809012
v 0.951058 0.000000 0.309013
v 0.951058 0.000000 -0.309013
v 0.000000 0.000000 1.000000
v 0.587786 0.000000 0.809017
v -0.951058 0.000000 0.309013
v -0.587786 0.000000 1.790425
v -0.587786 0.000000 -0.809017
v -0.951058 0.000000 -0.309013
v 0.587786 0.000000 -1.621038
v 0.000000 0.000000 -1.000000
v 0.688189 0.525736 0.499997
v -0.262869 0.525738 0.809012
v -1.948740 0.525736 0.000000
v -0.262869 0.525738 -1.580904
v 0.688189 0.525736 -0.499997
v 0.162456 0.850654 0.499995
v 0.525730 0.850652 0.000000
v -0.425323 0.850654 0.309011
v -0.425323 0.850654 -0.309011
v 0.162456 0.850654 -0.499995
vn 0.2798 -0.4245 0.8611
vn 0.3008 -0.6143 0.7295
vn -0.7325 -0.4245 0.5322
vn -0.7325 -0.4245 -0.5322
vn 0.2798 -0.4245 -0.8611
vn 0.4292 0.2077 0.8790
vn -0.8087 0.3393 0.4804
vn -0.3275 0.1737 0.9288
vn -0.9378 -0.0244 -0.3463
vn 0.3823 -0.8379 -0.3895
vn 0.8026 -0.1256 0.5831
vn 0.6589 -0.5708 0.4900
vn -0.3727 0.9280 -0.0000
vn -0.1705 0.8340 -0.5248
vn 0.9065 -0.3394 -0.2510
vn 0.5156 0.8343 0.1949
vn -0.4713 0.6617 0.5831
vn -0.2803 0.6068 -0.7438
vn 0.6846 0.5786 -0.4433
vn 0.2639 0.8457 -0.4638
vn 0.7321 0.4256 -0.5319
vn 0.4911 0.7947 -0.3568
vn 0.4089 0.6617 -0.6284
vn -0.2796 0.4256 -0.8606
vn -0.0834 0.9629 -0.2566
vn -0.7051 0.6603 -0.2587
vn -0.9049 0.4256 -0.0000
vn -0.2086 0.9780 -0.0000
vn -0.2803 0.6068 0.7438
vn -0.2796 0.4256 0.8606
vn -0.1876 0.7947 0.5773
vn -0.4485 0.8500 0.2763
vn 0.7321 0.4256 0.5319
vn 0.4911 0.7947 0.3568
vn 0.2639 0.8457 0.4638
vn 0.3930 -0.1340 -0.9097
vn 0.8994 0.3592 -0.2490
vn 0.1989 0.8803 -0.4307
vn 0.7598 -0.2724 -0.5904
vn -0.1973 -0.7696 -0.6072
vn -0.9155 -0.0237 -0.4015
vn -0.3962 -0.2293 -0.8891
vn -0.4662 -0.8847 -0.0000
vn -0.3962 -0.2293 0.8891
vn -0.3599 0.8668 0.3452
vn 0.6826 0.5257 0.5076
vn -0.8697 -0.2897 0.3996
vn 0.9608 -0.0211 0.2763
vn 0.7947 0.1876 0.5773
vn 0.3930 -0.1340 0.9097
vn -0.6010 0.5614 -0.5688
vn -0.6192 -0.5225 -0.5861
vn 0.8222 0.2204 -0.5248
vn -0.8026 0.1256 -0.5831
vn -0.7947 -0.1876 -0.5773
vn -0.3275 0.1737 -0.9288
vn -0.9083 0.3540 0.2227
vn -0.9020 -0.3707 0.2212
vn -0.1525 -0.9111 0.3830
vn 0.1298 -0.9075 0.3996
vn 0.1618 0.8519 0.4981
vn 0.9379 0.0696 0.3397
vn 0.4581 -0.8889 -0.0000
vn 0.5098 0.8603 -0.0000
vn 0.4292 0.2077 -0.8790
vn 0.4713 -0.6617 -0.5831
vn 0.1876 -0.7947 -0.5773
vn 0.3976 -0.8497 -0.3463
vn -0.5097 -0.8247 -0.2450
vn -0.4911 -0.7947 -0.3568
vn -0.2225 -0.8489 -0.4794
vn -0.2225 -0.8489 0.4794
vn -0.4911 -0.7947 0.3568
vn -0.4089 -0.6617 0.6284
vn 0.3008 -0.6143 -0.7295
vn 0.2241 -0.9746 -0.0000
vn 0.9054 -0.4245 -0.0000
vn -0.7523 -0.5402 0.3771
vn 0.0708 -0.9734 0.2178
vn 0.7245 -0.6535 0.2193
vt 0.231130 0.869485
vt 0.154753 0.451459
vt 0.757467 0.000000
vt 0.994066 0.000000
vt 0.586206 0.272338
vt 0.481659 0.810268
vt 0.480837 0.147589
vt 0.211434 0.860303
vt 0.052401 0.641477
vt 1.000000 0.801626
vt 0.830535 0.676107
vt 0.940207 0.220449
vt 0.919729 0.676107
vt 0.933044 0.457690
vt 0.769304 0.352806
vt 0.504997 0.477699
vt 0.605596 0.219313
vt 0.656851 0.618543
vt 0.429411 0.286569
vt 0.211161 0.451459
vt 0.582068 0.839116
vt 0.656851 0.709618
vt 0.398602 0.839116
vt 0.723769 0.775356
vt 0.217096 0.213337
vt 0.136154 0.089131
vt 0.770734 0.329335
vt 0.202178 0.536061
vt 0.106389 0.791810
vt 0.988657 0.801626
vt 0.787382 0.744792
vt 0.313417 0.706025
vt 0.481174 0.980137
vt 0.298869 0.731475
vt 0.912663 0.844735
vt 0.052208 0.237263
vt 0.851136 0.473609
vt 0.497582 0.477699
vt 0.154753 0.975646
vt 0.083680 0.577911
vt 0.605596 0.198763
vt 0.235097 0.975646
vt 0.520344 0.196747
vt 0.783983 0.775356
vt 0.652055 0.839116
vt 0.154753 0.732766
vt 0.605596 0.000000
vt 0.315777 0.839116
vt 0.046599 0.867796
vt 0.658245 0.775356
vt 0.313417 0.166684
vt 0.940207 0.087880
vt 0.490116 0.278437
vt 0.806669 0.135447
vt 0.847641 0.491655
vt 0.024640 0.521752
vt 0.919729 0.614737
vt 0.287833 0.869485
vt 0.919729 0.477699
vt 0.000000 0.585384
vt 0.994066 0.136262
vt 0.556687 0.330940
vt 0.719565 0.138671
vt 0.766055 0.193585
vt 0.787382 0.526150
vt 0.855839 0.987631
vt 0.692699 0.467056
vt 0.477314 0.346681
vt 0.435363 0.750421
vt 0.398602 0.866844
vt 0.000000 0.966034
vt 0.481174 0.839116
vt 0.087140 0.966034
vt 0.723654 0.648354
vt 0.052823 0.715304
vt 0.154753 0.869485
vt 0.564922 0.975089
vt 0.564922 0.972876
vt 0.398602 0.981753
vt 0.723769 0.871332
vt 0.313417 0.977795
vt 0.783983 0.929910
vt 0.520641 0.752380
vt 0.874522 0.844735
vt 0.605596 0.472530
vt 0.656851 0.812002
vt 0.240687 0.159771
vt 0.999402 0.638830
vt 0.556214 0.839116
vt 0.313417 0.361188
vt 1.000000 0.477699
vt 0.161295 0.731475
vt 0.851136 0.371470
vt 0.988867 0.352806
vt 0.725288 0.270642
vt 0.787382 0.844735
vt 0.692699 0.472530
vt 0.812393 0.267417
vt 0.380541 0.430240
vt 0.666219 0.477699
vt 0.000000 0.753133
vt 0.855839 0.844735
vt 0.933044 0.352806
vt 0.190182 0.468488
vt 0.933044 0.417273
vt 0.116907 0.732766
vt 0.787382 0.943149
vt 0.779600 0.467056
vt 0.478532 0.676119
vt 0.183979 0.282315
vt 0.481174 0.975089
vt 0.648159 0.972876
vt 0.313417 0.064137
vt 0.934819 0.352806
vt 0.644900 0.352806
vt 0.723769 0.962191
vt 0.000000 0.000000
vt 0.298869 0.451459
vt 0.988867 0.475739
vt 0.613449 0.352806
vt 0.988657 0.966147
vt 0.154753 0.593642
vt 0.787382 0.589275
vt 0.116907 0.867796
vt 0.851136 0.352806
vt 0.101355 0.285045
vt 0.532004 0.617351
vt 0.919729 0.943864
vt 0.168333 0.666573
vt 0.446726 0.615393
vt 0.779600 0.398375
vt 0.153495 0.219736
vt 0.855839 0.939800
vt 0.105919 0.146730
vt 0.228816 0.603800
vt 0.912663 0.984105
vt 0.024375 0.166918
s 0
usemtl マテリアル
f 1/1/1 14/42/1 13/39/1
f 2/7/2 14/43/2 16/51/2
f 1/2/3 13/40/3 18/56/3
f 1/3/4 18/54/4 20/63/4
f 1/4/5 20/61/5 17/52/5
f 2/6/6 16/48/6 23/69/6
f 3/9/7 15/46/7 25/75/7
f 4/10/8 19/57/8 27/88/8
f 5/17/9 21/64/9 29/95/9
f 6/19/10 22/68/10 31/99/10
f 2/6/11 23/69/11 26/83/11
f 3/8/12 25/76/12 28/92/12
f 4/11/13 27/84/13 30/96/13
f 5/14/14 29/93/14 32/103/14
f 6/18/15 31/100/15 24/74/15
f 7/22/16 33/109/16 38/127/16
f 8/25/17 34/110/17 40/132/17
f 9/26/18 35/113/18 41/134/18
f 10/28/19 36/118/19 42/135/19
f 11/30/20 37/121/20 39/128/20
f 39/129/21 42/135/21 12/34/21
f 39/129/22 37/122/22 42/135/22
f 37/122/23 10/28/23 42/135/23
f 42/136/24 41/133/24 12/35/24
f 42/137/25 36/117/25 41/134/25
f 36/117/26 9/26/26 41/134/26
f 41/134/27 40/132/27 12/36/27
f 41/134/28 35/113/28 40/132/28
f 35/113/29 8/25/29 40/132/29
f 40/131/30 38/125/30 12/37/30
f 40/132/31 34/110/31 38/126/31
f 34/110/32 7/20/32 38/126/32
f 38/127/33 39/130/33 12/38/33
f 38/127/34 33/109/34 39/130/34
f 33/109/35 11/32/35 39/130/35
f 24/74/36 37/123/36 11/31/36
f 24/74/37 31/100/37 37/123/37
f 31/101/38 10/29/38 37/124/38
f 32/104/39 36/118/39 10/28/39
f 32/105/40 29/94/40 36/119/40
f 29/95/41 9/27/41 36/120/41
f 30/98/42 35/114/42 9/27/42
f 30/97/43 27/85/43 35/115/43
f 27/86/44 8/24/44 35/116/44
f 28/90/45 34/110/45 8/25/45
f 28/89/46 25/77/46 34/111/46
f 25/78/47 7/21/47 34/112/47
f 26/83/48 33/109/48 7/22/48
f 26/83/49 23/69/49 33/109/49
f 23/69/50 11/32/50 33/109/50
f 31/101/51 32/106/51 10/29/51
f 31/102/52 22/66/52 32/107/52
f 22/67/53 5/15/53 32/108/53
f 29/95/54 30/98/54 9/27/54
f 29/95/55 21/64/55 30/98/55
f 21/64/56 4/12/56 30/98/56
f 27/87/57 28/90/57 8/25/57
f 27/88/58 19/57/58 28/91/58
f 19/58/59 3/8/59 28/92/59
f 25/79/60 26/81/60 7/23/60
f 25/80/61 15/44/61 26/82/61
f 15/45/62 2/6/62 26/83/62
f 23/70/63 24/72/63 11/33/63
f 23/71/64 16/49/64 24/73/64
f 16/50/65 6/18/65 24/74/65
f 17/53/66 22/68/66 6/19/66
f 17/53/67 20/62/67 22/68/67
f 20/62/68 5/16/68 22/68/68
f 20/63/69 21/64/69 5/17/69
f 20/63/70 18/54/70 21/64/70
f 18/55/71 4/13/71 21/65/71
f 18/55/72 19/59/72 4/13/72
f 18/56/73 13/40/73 19/60/73
f 13/40/74 3/9/74 19/60/74
f 16/51/75 17/53/75 6/19/75
f 16/51/76 14/43/76 17/53/76
f 14/43/77 1/5/77 17/53/77
f 13/40/78 15/46/78 3/9/78
f 13/41/79 14/43/79 15/47/79
f 14/43/80 2/7/80 15/47/80
