# Blender v3.1.2 OBJ File: ''
# www.blender.org
mtllib itemjump.mtl
o Cube
v 1.000000 1.000000 -1.000000
v 1.000000 -1.000000 -1.000000
v 1.000000 1.000000 1.000000
v 1.000000 -1.000000 1.000000
v -1.000000 1.000000 -1.000000
v -1.000000 -1.000000 -1.000000
v -1.000000 1.000000 1.000000
v -1.000000 -1.000000 1.000000
v -0.052241 -0.052241 2.220359
v -0.052241 0.052241 2.220359
v 0.052241 0.052241 2.220359
v 0.052241 -0.052241 2.220359
v 0.094898 -0.094898 -1.918718
v -0.094898 -0.094898 -1.918718
v 0.094898 0.094898 -1.918718
v -0.094898 0.094898 -1.918718
v 1.927527 0.695582 -0.695582
v 1.927527 -0.695582 -0.695582
v 1.927527 0.695582 0.695582
v 1.927527 -0.695582 0.695582
v -2.057676 -0.660291 -0.660291
v -2.057676 -0.660291 0.660291
v -2.057676 0.660291 0.660291
v -2.057676 0.660291 -0.660291
v 0.035056 1.594984 0.037344
v -0.168256 1.594984 0.037344
v 0.035056 1.594984 -0.165968
v -0.168256 1.594984 -0.165968
v -0.086113 -1.424686 -0.086113
v -0.086113 -1.424686 0.086113
v 0.086113 -1.424686 -0.086113
v 0.086113 -1.424686 0.086113
vt 0.585541 0.064891
vt 0.586206 0.205247
vt 0.443189 0.244352
vt 0.635985 0.677831
vt 0.514681 0.855959
vt 0.405422 0.677831
vt 0.596823 0.572112
vt 0.037960 0.204430
vt 0.198018 0.238626
vt 0.179503 0.386432
vt 0.000000 0.678577
vt 0.195469 0.585274
vt 0.230563 0.678577
vt 0.018352 0.351738
vt 0.514681 0.863347
vt 0.526726 0.855959
vt 0.526726 0.863347
vt 0.219962 0.062887
vt 0.405422 0.072195
vt 0.361505 0.244889
vt 0.766860 0.204917
vt 0.804636 0.402159
vt 0.624508 0.384378
vt 0.109259 0.856705
vt 0.854189 0.713356
vt 0.845806 0.740844
vt 0.835762 0.725152
vt 0.439771 0.098385
vt 0.671564 0.796896
vt 0.858484 0.753654
vt 0.858484 0.931879
vt 0.864234 0.535505
vt 0.670046 0.659804
vt 0.195469 0.458611
vt 0.035094 0.585274
vt 0.035094 0.458611
vt 0.635985 0.906109
vt 0.126597 0.000000
vt 0.405422 0.354476
vt 0.444584 0.572112
vt 0.596823 0.451875
vt 0.285248 0.458611
vt 0.812072 0.092458
vt 0.764205 0.451875
vt 0.600677 0.187004
vt 0.604638 0.219481
vt 0.619109 0.201238
vt 0.185830 0.222953
vt 0.213691 0.226437
vt 0.201502 0.210765
vt 0.031784 0.369010
vt 0.398028 0.062687
vt 0.812072 0.392784
vt 0.121304 0.856705
vt 0.864234 0.729049
vt 0.426262 0.115415
vt 0.840745 0.740844
vt 0.766003 1.000000
vt 0.000000 0.098455
vt 0.531544 0.451875
vt 0.444584 0.451875
vt 0.405422 0.365151
vt 0.692349 0.000000
vt 0.635985 0.533949
vn 0.0000 0.8141 -0.5808
vn -0.7898 0.0000 0.6134
vn -0.3058 0.0000 0.9521
vn 0.0000 -0.9069 -0.4214
vn 0.3118 0.0000 0.9501
vn 0.0000 -0.7124 -0.7018
vn 0.0000 0.0000 1.0000
vn 0.0000 -0.7898 0.6134
vn 0.0000 0.7898 0.6134
vn 0.7898 0.0000 0.6134
vn 0.0000 0.0000 -1.0000
vn 0.0000 0.7124 -0.7018
vn 0.7124 0.0000 -0.7018
vn -0.7124 0.0000 -0.7018
vn 1.0000 0.0000 0.0000
vn 0.3118 0.0000 -0.9501
vn 0.3118 -0.9501 0.0000
vn 0.3118 0.9501 0.0000
vn -1.0000 0.0000 0.0000
vn -0.3058 -0.9521 0.0000
vn -0.3058 0.9521 0.0000
vn -0.3058 0.0000 -0.9521
vn 0.0000 1.0000 0.0000
vn 0.0000 0.8506 0.5258
vn -0.5818 0.8133 0.0000
vn 0.5248 0.8512 0.0000
vn 0.0000 -1.0000 0.0000
vn 0.0000 -0.9069 0.4214
vn -0.4214 -0.9069 0.0000
vn 0.4214 -0.9069 0.0000
usemtl Material
s off
f 5/1/1 27/2/1 1/3/1
f 8/4/2 10/5/2 7/6/2
f 7/6/3 22/7/3 8/4/3
f 2/8/4 29/9/4 6/10/4
f 4/11/5 19/12/5 3/13/5
f 6/10/6 13/14/6 2/8/6
f 11/15/7 9/16/7 12/17/7
f 4/18/8 9/19/8 8/20/8
f 7/21/9 11/22/9 3/23/9
f 3/13/10 12/24/10 4/11/10
f 16/25/11 13/26/11 14/27/11
f 1/3/12 16/28/12 5/1/12
f 2/29/13 15/30/13 1/31/13
f 5/32/14 14/27/14 6/33/14
f 17/34/15 20/35/15 18/36/15
f 1/31/16 18/37/16 2/29/16
f 2/8/17 20/38/17 4/18/17
f 3/23/18 17/39/18 1/3/18
f 23/40/19 21/41/19 22/7/19
f 8/20/20 21/42/20 6/10/20
f 5/1/21 23/43/21 7/21/21
f 6/33/22 24/44/22 5/32/22
f 28/45/23 25/46/23 27/2/23
f 7/21/24 25/46/24 26/47/24
f 5/1/25 26/47/25 28/45/25
f 1/3/26 25/46/26 3/23/26
f 31/48/27 30/49/27 29/9/27
f 8/20/28 32/50/28 4/18/28
f 6/10/29 30/49/29 8/20/29
f 4/18/30 31/48/30 2/8/30
f 5/1/1 28/45/1 27/2/1
f 8/4/2 9/16/2 10/5/2
f 7/6/3 23/40/3 22/7/3
f 2/8/4 31/48/4 29/9/4
f 4/11/5 20/35/5 19/12/5
f 6/10/6 14/51/6 13/14/6
f 11/15/7 10/5/7 9/16/7
f 4/18/8 12/52/8 9/19/8
f 7/21/9 10/53/9 11/22/9
f 3/13/10 11/54/10 12/24/10
f 16/25/11 15/55/11 13/26/11
f 1/3/12 15/56/12 16/28/12
f 2/29/13 13/57/13 15/30/13
f 5/32/14 16/25/14 14/27/14
f 17/34/15 19/12/15 20/35/15
f 1/31/16 17/58/16 18/37/16
f 2/8/17 18/59/17 20/38/17
f 3/23/18 19/60/18 17/39/18
f 23/40/19 24/61/19 21/41/19
f 8/20/20 22/62/20 21/42/20
f 5/1/21 24/63/21 23/43/21
f 6/33/22 21/64/22 24/44/22
f 28/45/23 26/47/23 25/46/23
f 7/21/24 3/23/24 25/46/24
f 5/1/25 7/21/25 26/47/25
f 1/3/26 27/2/26 25/46/26
f 31/48/27 32/50/27 30/49/27
f 8/20/28 30/49/28 32/50/28
f 6/10/29 29/9/29 30/49/29
f 4/18/30 32/50/30 31/48/30
