# Blender v3.1.2 OBJ File: ''
# www.blender.org
mtllib enemybullet.mtl
o Cube
v 0.500000 0.500000 -0.500000
v 0.500000 -0.500000 -0.500000
v 0.500000 0.500000 0.500000
v 0.500000 -0.500000 0.500000
v -0.500000 0.500000 -0.500000
v -0.500000 -0.500000 -0.500000
v -0.500000 0.500000 0.500000
v -0.500000 -0.500000 0.500000
v -0.609568 -0.609568 -0.000000
v 0.000000 -0.609568 -0.609568
v 0.609568 0.000000 -0.609568
v -0.609568 -0.000000 0.609568
v 0.609568 0.000000 0.609568
v -0.609568 -0.000000 -0.609568
v -0.000000 0.609568 0.609568
v 0.609568 0.609568 0.000000
v -0.000000 -0.609568 0.609568
v -0.609568 0.609568 -0.000000
v 0.000000 0.609568 -0.609568
v 0.609568 -0.609568 0.000000
v -0.000000 1.130367 -0.000000
v 0.000000 0.000000 1.125762
v -1.079523 0.000000 -0.000000
v 0.000000 -1.162396 0.000000
v 1.141866 0.000000 -0.000000
v 0.000000 0.000000 -1.161130
vt 0.557487 0.050486
vt 0.674005 0.000000
vt 0.807961 0.011657
vt 0.607068 0.128215
vt 0.240926 0.999983
vt 0.125882 0.949436
vt 0.177572 0.871862
vt 0.378066 0.988631
vt 0.256419 0.750509
vt 0.400067 0.757464
vt 0.829451 0.242860
vt 0.684993 0.249693
vt 0.577018 0.460471
vt 0.618974 0.378128
vt 0.829451 0.474173
vt 0.697816 0.499827
vt 0.400067 0.526139
vt 0.189761 0.621962
vt 0.265303 0.500183
vt 0.145878 0.539474
vt 0.543948 0.951606
vt 0.446376 0.868521
vt 0.414928 0.742483
vt 0.595190 0.873001
vt 0.000000 0.737932
vt 0.453810 0.618435
vt 0.556144 0.541338
vt 0.602624 0.622914
vt 0.672111 0.750146
vt 0.815437 0.754393
vt 0.801422 0.992632
vt 0.414928 0.245811
vt 0.270778 0.249985
vt 0.194713 0.127056
vt 0.401234 0.007558
vt 0.145536 0.048358
vt 0.262242 0.000000
vt 0.659189 1.000000
vt 0.201978 0.377148
vt 0.000000 0.257867
vt 0.157454 0.458635
vt 0.056556 0.381428
vt 0.414928 0.262623
vt 0.049291 0.131337
vt 0.815437 0.515992
vt 0.674057 0.499827
vt 0.414928 0.484207
vt 0.276771 0.500183
vn 0.4705 0.7465 -0.4705
vn -0.4705 0.7465 -0.4705
vn -0.4705 0.7465 0.4705
vn 0.4705 0.7465 0.4705
vn 0.4686 -0.4686 0.7489
vn 0.4686 0.4686 0.7489
vn -0.4686 0.4686 0.7489
vn -0.4686 -0.4686 0.7489
vn -0.7734 -0.4482 0.4482
vn -0.7734 0.4482 0.4482
vn -0.7734 0.4482 -0.4482
vn -0.7734 -0.4482 -0.4482
vn -0.4834 -0.7298 -0.4834
vn 0.4834 -0.7298 -0.4834
vn 0.4834 -0.7298 0.4834
vn -0.4834 -0.7298 0.4834
vn 0.7404 -0.4753 -0.4753
vn 0.7404 0.4753 -0.4753
vn 0.7404 0.4753 0.4753
vn 0.7404 -0.4753 0.4753
vn -0.4829 -0.4829 -0.7305
vn -0.4829 0.4829 -0.7305
vn 0.4829 0.4829 -0.7305
vn 0.4829 -0.4829 -0.7305
usemtl Material
s off
f 1/1/1 19/2/1 21/3/1 16/4/1
f 19/5/2 5/6/2 18/7/2 21/8/2
f 21/8/3 18/7/3 7/9/3 15/10/3
f 16/4/4 21/3/4 15/11/4 3/12/4
f 4/13/5 13/14/5 22/15/5 17/16/5
f 13/14/6 3/12/6 15/11/6 22/15/6
f 22/17/7 15/10/7 7/9/7 12/18/7
f 17/19/8 22/17/8 12/18/8 8/20/8
f 8/21/9 12/22/9 23/23/9 9/24/9
f 12/18/10 7/9/10 18/7/10 23/25/10
f 23/23/11 18/26/11 5/27/11 14/28/11
f 9/24/12 23/23/12 14/28/12 6/29/12
f 6/29/13 10/30/13 24/31/13 9/24/13
f 10/32/14 2/33/14 20/34/14 24/35/14
f 24/35/15 20/34/15 4/36/15 17/37/15
f 9/24/16 24/31/16 17/38/16 8/21/16
f 2/33/17 11/39/17 25/40/17 20/34/17
f 11/39/18 1/41/18 16/42/18 25/40/18
f 25/43/19 16/4/19 3/12/19 13/14/19
f 20/34/20 25/40/20 13/44/20 4/36/20
f 6/29/21 14/28/21 26/45/21 10/30/21
f 14/28/22 5/27/22 19/46/22 26/45/22
f 26/47/23 19/48/23 1/41/23 11/39/23
f 10/32/24 26/47/24 11/39/24 2/33/24
