# Blender 3.5.0
# www.blender.org
mtllib itemheal.mtl
o Cube
v 1.000000 1.000000 -1.000000
v 1.000000 -1.000000 -1.000000
v 1.000000 1.000000 1.000000
v 1.000000 -1.000000 1.000000
v -1.000000 1.000000 -1.000000
v -1.000000 -1.000000 -1.000000
v -1.000000 1.000000 1.000000
v -1.000000 -1.000000 1.000000
v -0.052241 -0.052241 2.220359
v -0.052241 0.052241 2.220359
v 0.052241 0.052241 2.220359
v 0.052241 -0.052241 2.220359
v 0.094898 -0.094898 -1.918718
v -0.094898 -0.094898 -1.918718
v 0.094898 0.094898 -1.918718
v -0.094898 0.094898 -1.918718
v 1.927527 0.695582 -0.695582
v 1.927527 -0.695582 -0.695582
v 1.927527 0.695582 0.695582
v 1.927527 -0.695582 0.695582
v -2.057676 -0.660291 -0.660291
v -2.057676 -0.660291 0.660291
v -2.057676 0.660291 0.660291
v -2.057676 0.660291 -0.660291
v 0.035056 1.594984 0.037344
v -0.168256 1.594984 0.037344
v 0.035056 1.594984 -0.165968
v -0.168256 1.594984 -0.165968
v -0.086113 -1.424686 -0.086113
v -0.086113 -1.424686 0.086113
v 0.086113 -1.424686 -0.086113
v 0.086113 -1.424686 0.086113
vn -0.0000 0.8141 -0.5808
vn -0.7898 -0.0000 0.6134
vn -0.3058 -0.0000 0.9521
vn -0.0000 -0.9069 -0.4214
vn 0.3118 -0.0000 0.9501
vn -0.0000 -0.7124 -0.7018
vn -0.0000 -0.0000 1.0000
vn -0.0000 -0.7898 0.6134
vn -0.0000 0.7898 0.6134
vn 0.7898 -0.0000 0.6134
vn -0.0000 -0.0000 -1.0000
vn -0.0000 0.7124 -0.7018
vn 0.7124 -0.0000 -0.7018
vn -0.7124 -0.0000 -0.7018
vn 1.0000 -0.0000 -0.0000
vn 0.3118 -0.0000 -0.9501
vn 0.3118 -0.9501 -0.0000
vn 0.3118 0.9501 -0.0000
vn -1.0000 -0.0000 -0.0000
vn -0.3058 -0.9521 -0.0000
vn -0.3058 0.9521 -0.0000
vn -0.3058 -0.0000 -0.9521
vn -0.0000 1.0000 -0.0000
vn -0.0000 0.8506 0.5258
vn -0.5818 0.8133 -0.0000
vn 0.5248 0.8512 -0.0000
vn -0.0000 -1.0000 -0.0000
vn -0.0000 -0.9069 0.4214
vn -0.4214 -0.9069 -0.0000
vn 0.4214 -0.9069 -0.0000
vt 0.858484 0.931879
vt 0.443189 0.244352
vt 0.671564 0.796896
vt 0.037960 0.204430
vt 0.230563 0.678577
vt 0.624508 0.384378
vt 0.000000 0.678577
vt 0.219962 0.062887
vt 0.864234 0.535505
vt 0.585541 0.064891
vt 0.670046 0.659804
vt 0.179503 0.386432
vt 0.405422 0.677831
vt 0.766860 0.204917
vt 0.635985 0.677831
vt 0.361505 0.244889
vt 0.526726 0.855959
vt 0.405422 0.072195
vt 0.514681 0.855959
vt 0.812072 0.392784
vt 0.514681 0.863347
vt 0.804636 0.402159
vt 0.121304 0.856705
vt 0.526726 0.863347
vt 0.398028 0.062687
vt 0.109259 0.856705
vt 0.018352 0.351738
vt 0.845806 0.740844
vt 0.840745 0.740844
vt 0.031784 0.369010
vt 0.835762 0.725152
vt 0.864234 0.729049
vt 0.426262 0.115415
vt 0.858484 0.753654
vt 0.439771 0.098385
vt 0.854189 0.713356
vt 0.195469 0.458611
vt 0.766003 1.000000
vt 0.405422 0.354476
vt 0.035094 0.458611
vt 0.635985 0.906109
vt 0.000000 0.098455
vt 0.195469 0.585274
vt 0.531544 0.451875
vt 0.035094 0.585274
vt 0.126597 0.000000
vt 0.596823 0.451875
vt 0.285248 0.458611
vt 0.635985 0.533949
vt 0.596823 0.572112
vt 0.405422 0.365151
vt 0.444584 0.572112
vt 0.812072 0.092458
vt 0.444584 0.451875
vt 0.692349 0.000000
vt 0.764205 0.451875
vt 0.604638 0.219481
vt 0.619109 0.201238
vt 0.586206 0.205247
vt 0.600677 0.187004
vt 0.198018 0.238626
vt 0.213691 0.226437
vt 0.185830 0.222953
vt 0.201502 0.210765
s 0
usemtl Material.001
f 5/10/1 27/59/1 1/2/1
f 8/15/2 10/19/2 7/13/2
f 7/13/3 22/50/3 8/15/3
f 2/4/4 29/61/4 6/12/4
f 4/7/5 19/43/5 3/5/5
f 6/12/6 13/27/6 2/4/6
f 11/21/7 9/17/7 12/24/7
f 4/8/8 9/18/8 8/16/8
f 7/14/9 11/22/9 3/6/9
f 3/5/10 12/26/10 4/7/10
f 16/36/11 13/28/11 14/31/11
f 1/2/12 16/35/12 5/10/12
f 2/3/13 15/34/13 1/1/13
f 5/9/14 14/31/14 6/11/14
f 17/37/15 20/45/15 18/40/15
f 1/1/16 18/41/16 2/3/16
f 2/4/17 20/46/17 4/8/17
f 3/6/18 17/39/18 1/2/18
f 23/52/19 21/47/19 22/50/19
f 8/16/20 21/48/20 6/12/20
f 5/10/21 23/53/21 7/14/21
f 6/11/22 24/56/22 5/9/22
f 28/60/23 25/57/23 27/59/23
f 7/14/24 25/57/24 26/58/24
f 5/10/25 26/58/25 28/60/25
f 1/2/26 25/57/26 3/6/26
f 31/63/27 30/62/27 29/61/27
f 8/16/28 32/64/28 4/8/28
f 6/12/29 30/62/29 8/16/29
f 4/8/30 31/63/30 2/4/30
f 5/10/1 28/60/1 27/59/1
f 8/15/2 9/17/2 10/19/2
f 7/13/3 23/52/3 22/50/3
f 2/4/4 31/63/4 29/61/4
f 4/7/5 20/45/5 19/43/5
f 6/12/6 14/30/6 13/27/6
f 11/21/7 10/19/7 9/17/7
f 4/8/8 12/25/8 9/18/8
f 7/14/9 10/20/9 11/22/9
f 3/5/10 11/23/10 12/26/10
f 16/36/11 15/32/11 13/28/11
f 1/2/12 15/33/12 16/35/12
f 2/3/13 13/29/13 15/34/13
f 5/9/14 16/36/14 14/31/14
f 17/37/15 19/43/15 20/45/15
f 1/1/16 17/38/16 18/41/16
f 2/4/17 18/42/17 20/46/17
f 3/6/18 19/44/18 17/39/18
f 23/52/19 24/54/19 21/47/19
f 8/16/20 22/51/20 21/48/20
f 5/10/21 24/55/21 23/53/21
f 6/11/22 21/49/22 24/56/22
f 28/60/23 26/58/23 25/57/23
f 7/14/24 3/6/24 25/57/24
f 5/10/25 7/14/25 26/58/25
f 1/2/26 27/59/26 25/57/26
f 31/63/27 32/64/27 30/62/27
f 8/16/28 30/62/28 32/64/28
f 6/12/29 29/61/29 30/62/29
f 4/8/30 32/64/30 31/63/30
