# Blender 3.5.0
# www.blender.org
mtllib core1.mtl
o ICO球
v 0.000000 -3.000000 0.000000
v 2.170822 -1.341659 1.577176
v -0.829164 -1.341660 2.551948
v -2.683279 -1.341647 0.000000
v -0.829164 -1.341660 -2.551948
v 2.170822 -1.341659 -1.577176
v 0.829164 1.341660 2.551948
v -2.170822 1.341659 1.577176
v -2.170822 1.341659 -1.577176
v 0.829164 1.341660 -2.551948
v 2.683279 1.341647 0.000000
v 0.000000 3.000000 0.000000
v -0.487367 -2.551963 1.499986
v 1.275968 -2.551963 0.927034
v 0.788606 -1.577213 2.427035
v 2.551944 -1.577208 0.000000
v 1.275968 -2.551963 -0.927034
v -1.577189 -2.551955 0.000000
v -2.064568 -1.577209 1.499991
v -0.487367 -2.551963 -1.499986
v -2.064568 -1.577209 -1.499991
v 0.788606 -1.577213 -2.427035
v 2.853173 0.000000 0.927038
v 2.853173 0.000000 -0.927038
v 0.000000 0.000000 3.000000
v 1.763357 0.000000 2.427050
v -2.853173 0.000000 0.927038
v -1.763357 0.000000 2.427050
v -1.763357 0.000000 -2.427050
v -2.853173 0.000000 -0.927038
v 1.763357 0.000000 -2.427050
v 0.000000 0.000000 -3.000000
v 2.064568 1.577209 1.499991
v -0.788606 1.577213 2.427035
v -2.551944 1.577208 0.000000
v -0.788606 1.577213 -2.427035
v 2.064568 1.577209 -1.499991
v 0.487367 2.551963 1.499986
v 1.577189 2.551955 0.000000
v -1.275968 2.551963 0.927034
v -1.275968 2.551963 -0.927034
v 0.487367 2.551963 -1.499986
vn 0.1024 -0.9435 0.3151
vn 0.7002 -0.6617 0.2680
vn -0.2680 -0.9435 0.1947
vn -0.2680 -0.9435 -0.1947
vn 0.1024 -0.9435 -0.3151
vn 0.9050 -0.3304 0.2680
vn 0.0247 -0.3304 0.9435
vn -0.8897 -0.3304 0.3151
vn -0.5746 -0.3304 -0.7488
vn 0.5346 -0.3304 -0.7779
vn 0.8026 -0.1256 0.5831
vn -0.3066 -0.1256 0.9435
vn -0.9921 -0.1256 -0.0000
vn -0.3066 -0.1256 -0.9435
vn 0.8026 -0.1256 -0.5831
vn 0.4089 0.6617 0.6284
vn -0.4713 0.6617 0.5831
vn -0.7002 0.6617 -0.2680
vn 0.0385 0.6617 -0.7488
vn 0.7240 0.6617 -0.1947
vn 0.2680 0.9435 -0.1947
vn 0.4911 0.7947 -0.3568
vn 0.4089 0.6617 -0.6284
vn -0.1024 0.9435 -0.3151
vn -0.1876 0.7947 -0.5773
vn -0.4713 0.6617 -0.5831
vn -0.3313 0.9435 -0.0000
vn -0.6071 0.7947 -0.0000
vn -0.7002 0.6617 0.2680
vn -0.1024 0.9435 0.3151
vn -0.1876 0.7947 0.5773
vn 0.0385 0.6617 0.7488
vn 0.2680 0.9435 0.1947
vn 0.4911 0.7947 0.3568
vn 0.7240 0.6617 0.1947
vn 0.8897 0.3304 -0.3151
vn 0.7947 0.1876 -0.5773
vn 0.5746 0.3304 -0.7488
vn -0.0247 0.3304 -0.9435
vn -0.3035 0.1876 -0.9342
vn -0.5346 0.3304 -0.7779
vn -0.9050 0.3304 -0.2680
vn -0.9822 0.1876 -0.0000
vn -0.9050 0.3304 0.2680
vn -0.5346 0.3304 0.7779
vn -0.3035 0.1876 0.9342
vn -0.0247 0.3304 0.9435
vn 0.5746 0.3304 0.7488
vn 0.7947 0.1876 0.5773
vn 0.8897 0.3304 0.3151
vn 0.3066 0.1256 -0.9435
vn 0.3035 -0.1876 -0.9342
vn 0.0247 -0.3304 -0.9435
vn -0.8026 0.1256 -0.5831
vn -0.7947 -0.1876 -0.5773
vn -0.8897 -0.3304 -0.3151
vn -0.8026 0.1256 0.5831
vn -0.7947 -0.1876 0.5773
vn -0.5746 -0.3304 0.7488
vn 0.3066 0.1256 0.9435
vn 0.3035 -0.1876 0.9342
vn 0.5346 -0.3304 0.7779
vn 0.9921 0.1256 -0.0000
vn 0.9822 -0.1876 -0.0000
vn 0.9050 -0.3304 -0.2680
vn 0.4713 -0.6617 -0.5831
vn 0.1876 -0.7947 -0.5773
vn -0.0385 -0.6617 -0.7488
vn -0.4089 -0.6617 -0.6284
vn -0.4911 -0.7947 -0.3568
vn -0.7240 -0.6617 -0.1947
vn -0.7240 -0.6617 0.1947
vn -0.4911 -0.7947 0.3568
vn -0.4089 -0.6617 0.6284
vn 0.7002 -0.6617 -0.2680
vn 0.6071 -0.7947 -0.0000
vn 0.3313 -0.9435 -0.0000
vn -0.0385 -0.6617 0.7488
vn 0.1876 -0.7947 0.5773
vn 0.4713 -0.6617 0.5831
vt 0.248707 0.499740
vt 0.108244 0.067804
vt 0.000000 0.499741
vt 0.919342 0.110785
vt 0.344595 0.193642
vt 0.670791 0.119669
vt 0.562548 0.319478
vt 0.856497 0.719349
vt 0.127332 0.716820
vt 0.108243 0.319478
vt 0.458480 0.391798
vt 0.805796 0.332066
vt 0.331147 0.608877
vt 0.562548 0.067804
vt 0.742952 0.498068
vt 0.991502 0.506952
vt 0.326196 0.193642
vt 0.579854 0.608878
vt 0.870537 0.000000
vt 0.203892 0.387283
vt 0.119092 0.490021
vt 0.000001 0.119674
vt 1.000000 0.059515
vt 0.057705 0.387283
vt 0.207286 0.000000
vt 0.047749 0.617617
vt 0.193936 0.617616
vt 0.331147 0.451384
vt 0.335396 0.313319
vt 0.724443 0.005222
vt 0.789460 0.105701
vt 0.324992 0.593738
vt 0.463505 0.387283
vt 0.447193 0.267607
vt 0.730098 0.719349
vt 0.253651 0.721335
vt 0.601695 0.387283
vt 0.223598 0.119677
vt 0.939574 0.623049
vt 0.335396 0.073966
vt 0.017115 0.721334
vt 0.998936 0.202001
vt 0.000000 0.267605
vt 0.095488 0.193641
vt 0.335396 0.073965
vt 0.348262 0.387283
vt 0.722720 0.235766
vt 0.868814 0.230545
vt 0.575304 0.193641
vt 0.447193 0.119677
vt 0.793479 0.617828
vt 0.663357 0.589284
vt 0.670791 0.267605
vt 0.223598 0.267607
vt 0.584798 0.387284
vt 0.932195 0.332066
vt 0.069096 0.387283
vt 0.463505 0.000000
vt 0.378896 0.491001
vt 0.388852 0.721335
vt 0.662293 0.446798
vt 0.670790 0.119674
vt 0.872834 0.492985
vt 0.656139 0.514880
vt 0.207286 0.387283
vt 0.937850 0.392505
vt 0.662293 0.657235
vt 0.335395 0.313319
vt 0.525083 0.491002
vt 0.450239 0.618597
vt 0.791756 0.387283
vt 0.535038 0.721335
s 0
usemtl マテリアル
f 1/1/1 14/21/1 13/20/1
f 2/3/2 14/21/2 16/26/2
f 1/1/3 13/20/3 18/28/3
f 1/1/4 18/28/4 20/32/4
f 1/1/5 20/32/5 17/27/5
f 2/2/6 16/25/6 23/38/6
f 3/4/7 15/23/7 25/42/7
f 4/6/8 19/31/8 27/47/8
f 5/7/9 21/34/9 29/49/9
f 6/8/10 22/35/10 31/51/10
f 2/2/11 23/38/11 26/44/11
f 3/4/12 25/42/12 28/48/12
f 4/5/13 27/45/13 30/50/13
f 5/7/14 29/49/14 32/53/14
f 6/8/15 31/51/15 24/39/15
f 7/10/16 33/54/16 38/65/16
f 8/11/17 34/55/17 40/69/17
f 9/13/18 35/59/18 41/70/18
f 10/15/19 36/61/19 42/71/19
f 11/16/20 37/63/20 39/66/20
f 39/67/21 42/72/21 12/18/21
f 39/66/22 37/63/22 42/71/22
f 37/63/23 10/15/23 42/71/23
f 42/72/24 41/70/24 12/18/24
f 42/72/25 36/60/25 41/70/25
f 36/60/26 9/13/26 41/70/26
f 41/70/27 40/69/27 12/18/27
f 41/70/28 35/59/28 40/69/28
f 35/59/29 8/11/29 40/69/29
f 40/69/30 38/64/30 12/18/30
f 40/69/31 34/55/31 38/64/31
f 34/57/32 7/10/32 38/65/32
f 38/64/33 39/67/33 12/18/33
f 38/65/34 33/54/34 39/68/34
f 33/54/35 11/17/35 39/68/35
f 24/39/36 37/63/36 11/16/36
f 24/39/37 31/51/37 37/63/37
f 31/51/38 10/15/38 37/63/38
f 32/52/39 36/61/39 10/15/39
f 32/53/40 29/49/40 36/62/40
f 29/49/41 9/14/41 36/62/41
f 30/50/42 35/58/42 9/14/42
f 30/50/43 27/45/43 35/58/43
f 27/46/44 8/11/44 35/59/44
f 28/48/45 34/56/45 8/12/45
f 28/48/46 25/42/46 34/56/46
f 25/43/47 7/10/47 34/57/47
f 26/44/48 33/54/48 7/10/48
f 26/44/49 23/38/49 33/54/49
f 23/38/50 11/17/50 33/54/50
f 31/51/51 32/52/51 10/15/51
f 31/51/52 22/35/52 32/52/52
f 22/37/53 5/7/53 32/53/53
f 29/49/54 30/50/54 9/14/54
f 29/49/55 21/34/55 30/50/55
f 21/34/56 4/5/56 30/50/56
f 27/47/57 28/48/57 8/12/57
f 27/47/58 19/31/58 28/48/58
f 19/31/59 3/4/59 28/48/59
f 25/43/60 26/44/60 7/10/60
f 25/43/61 15/22/61 26/44/61
f 15/22/62 2/2/62 26/44/62
f 23/38/63 24/40/63 11/17/63
f 23/38/64 16/25/64 24/40/64
f 16/26/65 6/9/65 24/41/65
f 17/27/66 22/36/66 6/9/66
f 17/27/67 20/32/67 22/36/67
f 20/33/68 5/7/68 22/37/68
f 20/33/69 21/34/69 5/7/69
f 20/33/70 18/29/70 21/34/70
f 18/29/71 4/5/71 21/34/71
f 18/30/72 19/31/72 4/6/72
f 18/30/73 13/19/73 19/31/73
f 13/19/74 3/4/74 19/31/74
f 16/26/75 17/27/75 6/9/75
f 16/26/76 14/21/76 17/27/76
f 14/21/77 1/1/77 17/27/77
f 13/19/78 15/23/78 3/4/78
f 13/20/79 14/21/79 15/24/79
f 14/21/80 2/3/80 15/24/80
