# Blender 3.5.0
# www.blender.org
mtllib ground2.mtl
o 立方体
v -42.572845 -63.345455 70.351082
v -88.956955 0.084966 99.887512
v -42.572845 -50.052219 -70.351089
v -88.956955 0.084935 -99.887512
v 63.347366 -50.052204 70.351074
v 109.731476 0.084966 99.887512
v 63.347366 -63.345470 -70.351082
v 109.731476 0.084935 -99.887512
vn -0.8179 -0.5729 -0.0541
vn -0.0694 -0.5533 -0.8301
vn 0.8179 -0.5729 0.0541
vn 0.0694 -0.5533 0.8301
vn -0.1240 -0.9879 -0.0933
vn -0.0000 1.0000 -0.0000
vn -0.7340 -0.6791 -0.0000
vn -0.0000 -0.4221 -0.9065
vn 0.7340 -0.6791 -0.0000
vn -0.0000 -0.4221 0.9065
vn 0.1240 -0.9879 0.0933
vt 1.000000 0.000000
vt 0.333333 0.000000
vt 0.333333 0.666667
vt 1.000000 0.333333
vt 0.333333 0.333333
vt 0.333333 1.000000
vt 0.333333 0.000000
vt 0.333333 0.333333
vt 0.666667 0.000000
vt 0.666667 0.333333
vt 0.333333 0.333333
vt 0.333333 0.666667
vt 0.666667 0.000000
vt 0.000000 0.333333
vt 0.666667 0.666667
vt 0.000000 0.666667
vt 0.666667 0.333333
vt 0.000000 1.000000
vt 0.333333 0.333333
vt 0.000000 0.000000
vt 0.666667 0.333333
vt 0.000000 0.666667
vt 0.000000 0.333333
vt 0.333333 0.666667
s 0
usemtl マテリアル
f 2/4/1 3/9/1 1/1/1
f 4/11/2 7/20/2 3/7/2
f 8/24/3 5/14/3 7/19/3
f 6/17/4 1/2/4 5/13/4
f 7/21/5 1/3/5 3/8/5
f 4/12/6 6/18/6 8/22/6
f 2/4/7 4/10/7 3/9/7
f 4/11/8 8/23/8 7/20/8
f 8/24/9 6/16/9 5/14/9
f 6/17/10 2/5/10 1/2/10
f 7/21/11 5/15/11 1/3/11
f 4/12/6 2/6/6 6/18/6
