# Blender 3.5.0
# www.blender.org
mtllib boss1.mtl
o Cube
v -2.500000 2.500000 2.500000
v -2.500000 -2.500000 2.500000
v -2.500000 2.500000 -2.500000
v -2.500000 -2.500000 -2.500000
v 2.500000 2.500000 2.500000
v 2.500000 -2.500000 2.500000
v 2.500000 2.500000 -2.500000
v 2.500000 -2.500000 -2.500000
v 3.047839 -3.047840 0.000000
v 0.000000 -3.047839 3.047839
v -3.047839 0.000000 3.047840
v 3.047839 -0.000000 -3.047840
v -3.047840 -0.000000 -3.047839
v 3.047840 0.000000 3.047839
v 0.000000 3.047840 -3.047840
v -3.047839 3.047839 -0.000000
v 0.000000 -3.047839 -3.047839
v 3.047839 3.047839 -0.000000
v 0.000000 3.047839 3.047839
v -3.047839 -3.047839 0.000000
v 0.000000 4.197531 -0.000000
v 0.000000 -0.000000 -4.197531
v 7.861531 0.000000 0.000000
v 0.000000 -4.197531 0.000000
v -7.290016 0.000000 0.000000
v 0.000000 0.000000 4.197531
v 2.500000 -5.734653 3.598186
v 3.047839 -6.282493 1.098185
v -2.500000 -5.734653 3.598186
v 0.000000 -3.292644 4.146025
v -3.047839 -6.282492 1.098185
v 0.000000 -4.442335 1.098185
vn -0.3397 0.9004 0.2717
vn 0.2717 0.9004 0.3397
vn 0.2717 0.9004 -0.3397
vn -0.3397 0.9004 -0.2717
vn -0.2717 -0.3397 -0.9004
vn -0.3397 0.2717 -0.9004
vn 0.3397 0.2717 -0.9004
vn 0.2717 -0.3397 -0.9004
vn 0.9295 -0.2608 -0.2608
vn 0.4086 0.6454 -0.6454
vn 0.4086 0.6454 0.6454
vn 0.9295 -0.2608 0.2608
vn 0.1905 -0.3156 -0.9296
vn 0.3455 -0.9159 -0.2042
vn -0.2717 -0.9004 -0.3397
vn 0.3397 -0.9004 -0.2717
vn -0.9295 -0.2608 0.2608
vn -0.4529 0.6304 0.6304
vn -0.4529 0.6304 -0.6304
vn -0.9295 -0.2608 -0.2608
vn 0.2717 -0.3397 0.9004
vn 0.3397 0.2717 0.9004
vn -0.3397 0.2717 0.9004
vn -0.2717 -0.3397 0.9004
vn -0.5154 -0.8537 0.0741
vn 0.6417 -0.7176 0.2707
vn 0.1640 0.9628 0.2146
vn 0.9776 0.0677 0.1994
vn 0.4624 0.2850 0.8396
vn -0.9776 0.0677 0.1994
vn -0.2717 0.9004 0.3397
vn 0.3397 0.9004 0.2717
vn 0.3397 0.9004 -0.2717
vn -0.2717 0.9004 -0.3397
vn -0.3397 -0.2717 -0.9004
vn -0.2717 0.3397 -0.9004
vn 0.2717 0.3397 -0.9004
vn 0.3397 -0.2717 -0.9004
vn 0.4086 -0.6454 -0.6454
vn 0.9295 0.2608 -0.2608
vn 0.9295 0.2608 0.2608
vn 0.4086 -0.6454 0.6454
vn -0.3455 -0.9159 -0.2042
vn -0.1905 -0.3156 -0.9296
vn -0.3397 -0.9004 -0.2717
vn 0.2717 -0.9004 -0.3397
vn -0.4529 -0.6304 0.6304
vn -0.9295 0.2608 0.2608
vn -0.9295 0.2608 -0.2608
vn -0.4529 -0.6304 -0.6304
vn 0.3397 -0.2717 0.9004
vn 0.2717 0.3397 0.9004
vn -0.2717 0.3397 0.9004
vn -0.3397 -0.2717 0.9004
vn -0.6417 -0.7176 0.2707
vn 0.5154 -0.8537 0.0741
vn -0.4624 0.2850 0.8396
vn -0.1640 0.9628 0.2146
vt 0.193685 0.717330
vt 0.464222 0.432001
vt 0.036187 0.696257
vt 0.841681 0.080840
vt 0.373286 0.727355
vt 0.297463 0.107930
vt 0.880961 0.401081
vt 0.407594 0.811498
vt 0.262677 0.305697
vt 0.260255 0.287909
vt 0.193685 0.430596
vt 0.193685 0.525299
vt 0.260255 0.438053
vt 0.407594 0.653525
vt 0.000000 0.482489
vt 0.809406 0.105074
vt 0.930909 0.264356
vt 0.513102 0.124070
vt 0.193685 0.901688
vt 0.941026 0.402256
vt 0.053518 0.310891
vt 0.997578 0.496223
vt 0.694498 0.117535
vt 0.700845 0.538361
vt 0.523148 0.184230
vt 0.000000 0.220217
vt 0.007882 0.597584
vt 0.917470 0.158568
vt 0.407594 0.835724
vt 0.700379 0.748286
vt 0.510187 0.530417
vt 0.673728 0.928462
vt 0.254793 0.811645
vt 0.148004 0.696257
vt 0.523148 0.235429
vt 0.997578 0.305697
vt 0.880961 0.492096
vt 0.020322 0.409789
vt 0.510187 0.538361
vt 0.253750 1.000000
vt 0.700379 0.685272
vt 0.468611 0.907715
vt 0.260255 0.215751
vt 0.941026 0.305697
vt 0.700379 0.872716
vt 0.159496 0.886449
vt 0.841681 0.000000
vt 0.257773 0.430596
vt 0.694498 0.239930
vt 0.103887 0.435645
vt 0.412906 0.105038
vt 0.510187 0.340226
vt 0.260255 0.035636
vt 0.510187 0.748286
vt 0.859957 0.768796
vt 0.254793 0.621123
vt 0.941026 0.496366
vt 0.168507 0.298506
vt 0.700845 0.492096
vt 0.159496 0.696257
vt 0.261522 0.347604
vt 0.523148 0.055313
vt 0.253750 0.811645
vt 0.257773 0.621122
vt 0.348983 0.432791
vt 0.468611 0.717192
vt 0.252040 0.192198
vt 0.673728 0.748286
vt 0.860227 0.768796
vt 0.260255 0.714704
vt 0.371946 0.305697
vt 0.399700 0.000000
vt 0.399700 0.248058
vt 0.162369 0.430596
vt 0.836936 0.305697
vt 0.000000 0.803399
vt 0.605703 0.305697
vt 0.694498 0.000000
vt 0.134381 0.169514
vt 0.606368 0.538362
vt 0.859957 0.538361
vt 0.510187 0.881727
vt 0.860227 0.940642
vt 0.371946 0.567632
vt 0.149051 0.571249
vt 0.497569 0.717192
vt 0.963474 0.650998
vt 0.841681 0.252607
vt 0.963474 0.538361
vt 0.008214 0.083724
vt 0.726773 0.265069
vt 0.945131 0.768796
vt 0.407594 0.580284
vt 0.198769 0.000000
vt 0.958329 0.000000
vt 0.860227 0.900222
vt 0.497569 0.567632
vt 0.859958 0.696058
vt 0.958329 0.151500
vt 0.260255 0.055705
vt 0.294562 0.567632
vt 0.966035 0.900222
vt 0.879782 0.553354
vt 0.120852 0.128445
s 0
usemtl Material.001
f 1/2/1 21/71/1 16/52/1
f 5/13/2 21/71/2 19/65/2
f 21/72/3 7/18/3 15/51/3
f 21/72/4 3/6/4 16/53/4
f 4/10/5 22/74/5 17/58/5
f 3/6/6 22/73/6 13/43/6
f 22/73/7 7/18/7 12/35/7
f 22/74/8 8/21/8 17/58/8
f 12/36/9 9/22/9 8/20/9
f 12/37/10 18/59/10 23/75/10
f 18/60/11 14/46/11 23/76/11
f 9/23/12 14/47/12 6/16/12
f 20/67/13 32/104/13 31/100/13
f 9/26/14 32/104/14 24/79/14
f 24/79/15 4/10/15 17/58/15
f 24/79/16 8/21/16 9/26/16
f 11/29/17 20/70/17 2/5/17
f 11/30/18 16/54/18 25/80/18
f 16/55/19 13/41/19 25/81/19
f 20/66/20 13/42/20 4/8/20
f 6/15/21 26/85/21 10/27/21
f 5/11/22 26/85/22 14/50/22
f 26/84/23 1/2/23 11/31/23
f 26/85/24 2/3/24 10/27/24
f 27/87/25 32/103/25 28/89/25
f 29/92/26 32/102/26 30/96/26
f 2/4/27 30/99/27 10/28/27
f 6/16/28 28/91/28 9/23/28
f 6/14/29 30/97/29 27/86/29
f 2/5/30 31/101/30 29/93/30
f 1/2/31 19/65/31 21/71/31
f 5/13/32 18/61/32 21/71/32
f 21/72/33 18/62/33 7/18/33
f 21/72/34 15/51/34 3/6/34
f 4/9/35 13/43/35 22/73/35
f 3/6/36 15/51/36 22/73/36
f 22/73/37 15/51/37 7/18/37
f 22/74/38 12/38/38 8/21/38
f 12/39/39 23/77/39 9/24/39
f 12/40/40 7/19/40 18/63/40
f 18/64/41 5/12/41 14/48/41
f 9/25/42 23/78/42 14/49/42
f 20/67/43 24/79/43 32/104/43
f 9/26/44 28/90/44 32/104/44
f 24/79/45 20/67/45 4/10/45
f 24/79/46 17/58/46 8/21/46
f 11/32/47 25/82/47 20/68/47
f 11/33/48 1/1/48 16/56/48
f 16/57/49 3/7/49 13/44/49
f 20/69/50 25/83/50 13/45/50
f 6/15/51 14/50/51 26/85/51
f 5/13/52 19/65/52 26/84/52
f 26/84/53 19/65/53 1/2/53
f 26/85/54 11/34/54 2/3/54
f 27/87/55 30/98/55 32/103/55
f 29/94/56 31/100/56 32/104/56
f 2/4/57 29/95/57 30/99/57
f 6/16/28 27/88/28 28/91/28
f 6/17/58 10/28/58 30/99/58
f 2/5/30 20/70/30 31/101/30
