# Blender 3.5.0
# www.blender.org
mtllib sphere2.mtl
o Cube
v 0.500000 0.500000 -0.500000
v 0.500000 -0.500000 -0.500000
v 0.500000 0.500000 0.500000
v 0.500000 -0.500000 0.500000
v -0.500000 0.500000 -0.500000
v -0.500000 -0.500000 -0.500000
v -0.500000 0.500000 0.500000
v -0.500000 -0.500000 0.500000
v -0.609568 -0.609568 -0.000000
v 0.000000 -0.609568 -0.609568
v 0.609568 0.000000 -0.609568
v -0.609568 -0.000000 0.609568
v 0.609568 0.000000 0.609568
v -0.609568 -0.000000 -0.609568
v -0.000000 0.609568 0.609568
v 0.609568 0.609568 0.000000
v -0.000000 -0.609568 0.609568
v -0.609568 0.609568 -0.000000
v 0.000000 0.609568 -0.609568
v 0.609568 -0.609568 0.000000
v -0.000000 0.839506 -0.000000
v 0.000000 0.000000 0.839506
v -0.839506 0.000000 -0.000000
v 0.000000 -0.839506 0.000000
v 0.839506 0.000000 -0.000000
v 0.000000 0.000000 -0.839506
vn 0.3397 0.9004 -0.2717
vn -0.2717 0.9004 -0.3397
vn -0.2717 0.9004 0.3397
vn 0.3397 0.9004 0.2717
vn 0.2717 -0.3397 0.9004
vn 0.3397 0.2717 0.9004
vn -0.3397 0.2717 0.9004
vn -0.2717 -0.3397 0.9004
vn -0.9004 -0.3397 0.2717
vn -0.9004 0.2717 0.3397
vn -0.9004 0.2717 -0.3397
vn -0.9004 -0.3397 -0.2717
vn -0.3397 -0.9004 -0.2717
vn 0.2717 -0.9004 -0.3397
vn 0.2717 -0.9004 0.3397
vn -0.3397 -0.9004 0.2717
vn 0.9004 -0.3397 -0.2717
vn 0.9004 0.2717 -0.3397
vn 0.9004 0.2717 0.3397
vn 0.9004 -0.3397 0.2717
vn -0.2717 -0.3397 -0.9004
vn -0.3397 0.2717 -0.9004
vn 0.3397 0.2717 -0.9004
vn 0.2717 -0.3397 -0.9004
vn 0.2717 0.9004 -0.3397
vn -0.3397 0.9004 -0.2717
vn -0.3397 0.9004 0.2717
vn 0.2717 0.9004 0.3397
vn 0.3397 -0.2717 0.9004
vn 0.2717 0.3397 0.9004
vn -0.2717 0.3397 0.9004
vn -0.3397 -0.2717 0.9004
vn -0.9004 -0.2717 0.3397
vn -0.9004 0.3397 0.2717
vn -0.9004 0.3397 -0.2717
vn -0.9004 -0.2717 -0.3397
vn -0.2717 -0.9004 -0.3397
vn 0.3397 -0.9004 -0.2717
vn 0.3397 -0.9004 0.2717
vn -0.2717 -0.9004 0.3397
vn 0.9004 -0.2717 -0.3397
vn 0.9004 0.3397 -0.2717
vn 0.9004 0.3397 0.2717
vn 0.9004 -0.2717 0.3397
vn -0.3397 -0.2717 -0.9004
vn -0.2717 0.3397 -0.9004
vn 0.2717 0.3397 -0.9004
vn 0.3397 -0.2717 -0.9004
vt 0.688802 0.648163
vt 0.333333 0.299650
vt 0.393249 0.346934
vt 0.333333 0.652490
vt 0.295554 0.010232
vt 0.355469 0.057516
vt 0.962220 0.695448
vt 0.962220 0.342608
vt 0.059916 0.346934
vt 1.000000 0.053190
vt 0.059916 0.699774
vt 0.022136 0.057517
vt 0.726582 0.358745
vt 0.355469 0.648163
vt 0.666667 0.299650
vt 0.393249 0.358745
vt 0.295554 0.363072
vt 0.628887 0.010232
vt 1.000000 0.406030
vt 0.688802 0.295323
vt 0.628887 0.695448
vt 0.726582 0.005905
vt 0.666667 0.406030
vt 0.022136 0.410356
vt 0.523029 0.352840
vt 0.143637 0.352840
vt 0.476971 0.000000
vt 0.333333 0.500436
vt 0.333333 0.147597
vt 0.333333 0.205243
vt 0.666667 0.147597
vt 0.666667 0.558083
vt 1.000000 0.205243
vt 0.000000 0.205243
vt 0.333333 0.500436
vt 0.666667 0.147597
vt 1.000000 0.558083
vt 0.810304 0.352840
vt 0.810304 0.705680
vt 0.189696 0.352840
vt 0.856363 0.000000
vt 0.000000 0.558083
vt 0.856363 0.352840
vt 0.476971 0.705680
vt 0.666667 0.500436
vt 0.523029 0.352840
vt 0.143637 0.000000
vt 0.189696 0.705680
vt 0.810106 0.533799
vt 0.810106 0.180960
vt 0.476773 0.533799
vt 0.143440 0.524720
vt 0.143440 0.171880
vt 0.476773 0.171880
s 0
usemtl Material
f 1/1/1 21/49/1 16/39/1
f 5/13/2 21/49/2 19/45/2
f 21/49/3 7/19/3 15/37/3
f 21/49/4 3/7/4 16/39/4
f 4/10/5 22/50/5 17/41/5
f 3/8/6 22/50/6 13/33/6
f 22/50/7 7/20/7 12/31/7
f 22/50/8 8/22/8 17/41/8
f 8/23/9 23/51/9 9/25/9
f 7/21/10 23/51/10 12/32/10
f 23/51/11 5/14/11 14/35/11
f 23/51/12 6/16/12 9/25/12
f 6/17/13 24/52/13 9/26/13
f 2/4/14 24/52/14 10/28/14
f 24/52/15 4/11/15 17/42/15
f 24/52/16 8/24/16 9/26/16
f 2/5/17 25/53/17 20/47/17
f 1/2/18 25/53/18 11/29/18
f 25/53/19 3/9/19 13/34/19
f 25/53/20 4/12/20 20/47/20
f 6/18/21 26/54/21 10/27/21
f 5/15/22 26/54/22 14/36/22
f 26/54/23 1/3/23 11/30/23
f 26/54/24 2/6/24 10/27/24
f 1/1/25 19/45/25 21/49/25
f 5/13/26 18/43/26 21/49/26
f 21/49/27 18/43/27 7/19/27
f 21/49/28 15/37/28 3/7/28
f 4/10/29 13/33/29 22/50/29
f 3/8/30 15/38/30 22/50/30
f 22/50/31 15/38/31 7/20/31
f 22/50/32 12/31/32 8/22/32
f 8/23/33 12/32/33 23/51/33
f 7/21/34 18/44/34 23/51/34
f 23/51/35 18/44/35 5/14/35
f 23/51/36 14/35/36 6/16/36
f 6/17/37 10/28/37 24/52/37
f 2/4/38 20/48/38 24/52/38
f 24/52/39 20/48/39 4/11/39
f 24/52/40 17/42/40 8/24/40
f 2/5/41 11/29/41 25/53/41
f 1/2/42 16/40/42 25/53/42
f 25/53/43 16/40/43 3/9/43
f 25/53/44 13/34/44 4/12/44
f 6/18/45 14/36/45 26/54/45
f 5/15/46 19/46/46 26/54/46
f 26/54/47 19/46/47 1/3/47
f 26/54/48 11/30/48 2/6/48
