# Blender v3.1.2 OBJ File: ''
# www.blender.org
mtllib playerbullet.mtl
o Cube
v 0.500000 0.500000 -0.500000
v 0.500000 -0.500000 -0.500000
v 0.500000 0.500000 0.500000
v 0.500000 -0.500000 0.500000
v -0.500000 0.500000 -0.500000
v -0.500000 -0.500000 -0.500000
v -0.500000 0.500000 0.500000
v -0.500000 -0.500000 0.500000
v -0.609568 -0.609568 -0.000000
v 0.000000 -0.609568 -0.609568
v 0.609568 0.000000 -0.609568
v -0.609568 -0.000000 0.609568
v 0.609568 0.000000 0.609568
v -0.609568 -0.000000 -0.609568
v -0.000000 0.609568 0.609568
v 0.609568 0.609568 0.000000
v -0.000000 -0.609568 0.609568
v -0.609568 0.609568 -0.000000
v 0.000000 0.609568 -0.609568
v 0.609568 -0.609568 0.000000
v -0.000000 0.571468 -0.000000
v 0.000000 0.000000 1.669191
v -0.661586 0.000000 -0.000000
v 0.000000 -0.653282 0.000000
v 0.658055 0.000000 -0.000000
v 0.000000 0.000000 -0.668594
vt 0.090233 0.051412
vt 0.183940 0.000000
vt 0.254675 0.111581
vt 0.139670 0.121360
vt 0.284539 0.024483
vt 0.376556 0.088530
vt 0.406220 0.196646
vt 0.332286 0.209889
vt 0.211914 0.223575
vt 0.433216 0.288066
vt 0.406220 0.261070
vt 0.556406 0.000000
vt 0.556406 0.261070
vt 0.158841 0.332478
vt 0.406220 0.498490
vt 0.765264 0.000000
vt 0.967852 0.222871
vt 0.947261 0.255019
vt 0.821148 0.255019
vt 0.706591 0.261070
vt 0.679596 0.288066
vt 0.706591 0.307758
vt 0.853296 0.401723
vt 0.706591 0.433871
vt 1.000000 0.369575
vt 1.000000 0.495688
vt 0.885444 0.548428
vt 0.759331 0.548428
vt 0.679596 0.534446
vt 0.556406 0.561441
vt 0.556406 0.411256
vt 0.706591 0.411256
vt 0.433216 0.534446
vt 0.406220 0.411256
vt 0.000000 0.225591
vt 0.010494 0.122589
vt 0.075246 0.228839
vt 0.029665 0.333707
vt 0.121682 0.397753
vt 0.052739 0.498490
vt 0.178852 0.498490
vt 0.146704 0.645195
vt 0.000000 0.613047
vt 0.293409 0.551230
vt 0.293409 0.677343
vt 0.240669 0.791899
vt 0.114556 0.791899
vt 0.000000 0.739160
vn 0.0711 0.9949 -0.0711
vn -0.0711 0.9949 -0.0711
vn -0.0711 0.9949 0.0711
vn 0.0711 0.9949 0.0711
vn 0.6051 -0.6051 0.5175
vn 0.6051 0.6051 0.5175
vn -0.6051 0.6051 0.5175
vn -0.6051 -0.6051 0.5175
vn -0.9749 -0.1575 0.1575
vn -0.9749 0.1575 0.1575
vn -0.9749 0.1575 -0.1575
vn -0.9749 -0.1575 -0.1575
vn -0.1498 -0.9773 -0.1498
vn 0.1498 -0.9773 -0.1498
vn 0.1498 -0.9773 0.1498
vn -0.1498 -0.9773 0.1498
vn 0.9759 -0.1542 -0.1542
vn 0.9759 0.1542 -0.1542
vn 0.9759 0.1542 0.1542
vn 0.9759 -0.1542 0.1542
vn -0.1640 -0.1640 -0.9727
vn -0.1640 0.1640 -0.9727
vn 0.1640 0.1640 -0.9727
vn 0.1640 -0.1640 -0.9727
usemtl Material
s off
f 1/1/1 19/2/1 21/3/1 16/4/1
f 19/2/2 5/5/2 18/6/2 21/3/2
f 21/3/3 18/6/3 7/7/3 15/8/3
f 16/4/4 21/3/4 15/8/4 3/9/4
f 4/10/5 13/11/5 22/12/5 17/13/5
f 13/14/6 3/9/6 15/8/6 22/15/6
f 22/16/7 15/17/7 7/18/7 12/19/7
f 17/13/8 22/12/8 12/20/8 8/21/8
f 8/22/9 12/19/9 23/23/9 9/24/9
f 12/19/10 7/18/10 18/25/10 23/23/10
f 23/23/11 18/25/11 5/26/11 14/27/11
f 9/24/12 23/23/12 14/27/12 6/28/12
f 6/29/13 10/30/13 24/31/13 9/32/13
f 10/30/14 2/33/14 20/34/14 24/31/14
f 24/31/15 20/34/15 4/10/15 17/13/15
f 9/32/16 24/31/16 17/13/16 8/21/16
f 2/35/17 11/36/17 25/37/17 20/38/17
f 11/36/18 1/1/18 16/4/18 25/37/18
f 25/37/19 16/4/19 3/9/19 13/14/19
f 20/38/20 25/37/20 13/14/20 4/39/20
f 6/40/21 14/41/21 26/42/21 10/43/21
f 14/41/22 5/44/22 19/45/22 26/42/22
f 26/42/23 19/45/23 1/46/23 11/47/23
f 10/43/24 26/42/24 11/47/24 2/48/24
