# Blender 3.5.0
# www.blender.org
mtllib enemy2.mtl
o 立方体_立方体.015
v 1.000000 -1.141337 -1.000000
v 1.000000 0.858663 -1.000000
v 1.000000 -1.141337 1.000000
v 1.000000 0.858663 1.000000
v -1.000000 -1.141337 -1.000000
v -1.000000 0.858663 -1.000000
v -1.000000 -1.141337 1.000000
v -1.000000 0.858663 1.000000
v -0.500000 0.358663 0.500000
v -0.500000 1.358663 0.500000
v -0.500000 0.358663 1.500000
v -0.500000 2.014177 1.500000
v -1.500000 0.358663 0.500000
v -1.500000 2.014177 0.500000
v -1.500000 0.358663 1.500000
v -1.500000 1.358663 1.500000
v 1.500000 0.358663 0.500000
v 1.500000 1.358663 0.500000
v 1.500000 0.358663 1.500000
v 1.500000 1.963078 1.500000
v 0.500000 0.358663 0.500000
v 0.500000 1.963078 0.500000
v 0.500000 0.358663 1.500000
v 0.500000 1.358663 1.500000
v 1.500000 -2.198311 -1.500000
v 1.500000 -0.641337 -1.500000
v 1.500000 -1.641337 -0.500000
v 1.500000 -0.641337 -0.500000
v 0.500000 -1.641337 -1.500000
v 0.500000 -0.641337 -1.500000
v 0.500000 -2.198311 -0.500000
v 0.500000 -0.641337 -0.500000
v 1.500000 0.358663 -1.500000
v 1.500000 1.358663 -1.500000
v 1.500000 0.358663 -0.500000
v 1.500000 1.979776 -0.500000
v 0.500000 0.358663 -1.500000
v 0.500000 1.979776 -1.500000
v 0.500000 0.358663 -0.500000
v 0.500000 1.358663 -0.500000
v -0.500000 0.358663 -1.500000
v -0.500000 1.358663 -1.500000
v -0.500000 0.358663 -0.500000
v -0.500000 2.034091 -0.500000
v -1.500000 0.358663 -1.500000
v -1.500000 2.034091 -1.500000
v -1.500000 0.358663 -0.500000
v -1.500000 1.358663 -0.500000
v -0.500000 -2.192290 -1.500000
v -0.500000 -0.641337 -1.500000
v -0.500000 -1.641337 -0.500000
v -0.500000 -0.641337 -0.500000
v -1.500000 -1.641337 -1.500000
v -1.500000 -0.641337 -1.500000
v -1.500000 -2.192290 -0.500000
v -1.500000 -0.641337 -0.500000
v -0.500000 -2.253692 0.500000
v -0.500000 -0.641337 0.500000
v -0.500000 -1.641337 1.500000
v -0.500000 -0.641337 1.500000
v -1.500000 -1.641337 0.500000
v -1.500000 -0.641337 0.500000
v -1.500000 -2.253692 1.500000
v -1.500000 -0.641337 1.500000
v 1.500000 -2.315140 0.500000
v 1.500000 -0.641337 0.500000
v 1.500000 -1.641337 1.500000
v 1.500000 -0.641337 1.500000
v 0.500000 -1.641337 0.500000
v 0.500000 -0.641337 0.500000
v 0.500000 -2.315140 1.500000
v 0.500000 -0.641337 1.500000
vn 1.0000 -0.0000 -0.0000
vn -0.0000 -0.0000 1.0000
vn -1.0000 -0.0000 -0.0000
vn -0.0000 -0.0000 -1.0000
vn -0.0000 -1.0000 -0.0000
vn -0.0000 1.0000 -0.0000
vn -0.4807 0.7334 0.4807
vn -0.4594 0.7601 0.4594
vn 0.4375 -0.7856 0.4375
vn -0.4667 0.7513 0.4667
vn -0.4884 0.7231 0.4884
vn 0.4346 -0.7888 0.4346
vn 0.4629 -0.7559 0.4629
vn 0.4878 -0.7239 0.4878
vn 0.4807 0.7334 -0.4807
vn 0.4594 0.7601 -0.4594
vn -0.4375 -0.7856 -0.4375
vn 0.4667 0.7513 -0.4667
vn 0.4884 0.7231 -0.4884
vn -0.4346 -0.7888 -0.4346
vn -0.4629 -0.7559 -0.4629
vn -0.4878 -0.7239 -0.4878
vt 0.666667 0.000000
vt 0.222222 0.000000
vt 0.222222 0.444444
vt 0.666667 0.222222
vt 0.222222 0.222222
vt 0.222222 0.666667
vt 0.222222 0.000000
vt 0.222222 0.222222
vt 0.444444 0.000000
vt 0.444444 0.222222
vt 0.222222 0.222222
vt 0.222222 0.444444
vt 0.444444 0.000000
vt 0.000000 0.222222
vt 0.444444 0.444444
vt 0.000000 0.444444
vt 0.444444 0.222222
vt 0.000000 0.666667
vt 0.222222 0.222222
vt 0.000000 0.000000
vt 0.444444 0.222222
vt 0.000000 0.444444
vt 0.000000 0.222222
vt 0.222222 0.444444
vt 0.555555 0.222222
vt 1.000000 0.111111
vt 0.444444 0.555555
vt 0.555555 0.333333
vt 0.888889 0.111111
vt 0.333333 0.444444
vt 0.444444 0.444444
vt 0.444444 0.222222
vt 0.444444 0.333333
vt 0.333333 0.555556
vt 1.000000 0.111111
vt 1.000000 0.222222
vt 0.333333 0.888889
vt 0.555556 0.555556
vt 0.222222 0.888889
vt 0.888889 0.222222
vt 0.888889 0.000000
vt 0.333333 1.000000
vt 0.222222 0.444444
vt 0.555556 0.444444
vt 1.000000 0.000000
vt 0.222222 0.555556
vt 0.222222 1.000000
vt 0.666667 0.222222
vt 0.444444 0.555556
vt 0.555555 0.777778
vt 0.666667 0.333333
vt 0.444444 0.666667
vt 0.666667 0.666667
vt 0.888889 0.888889
vt 0.666667 0.777778
vt 0.555555 0.222222
vt 0.555555 0.333333
vt 0.777778 0.888889
vt 0.666667 0.555556
vt 0.555555 0.555556
vt 0.888889 0.666667
vt 0.555555 0.888889
vt 0.777778 0.666667
vt 0.555555 0.666667
vt 0.888889 0.777778
vt 0.666667 0.888889
vt 0.555556 0.555556
vt 0.777778 0.777778
vt 0.777778 0.000000
vt 0.333333 0.777778
vt 0.666667 0.333333
vt 0.777778 0.111111
vt 0.222222 0.777778
vt 0.777778 0.333333
vt 0.111111 0.666667
vt 0.666667 0.222222
vt 0.666667 0.000000
vt 0.666667 0.111111
vt 0.111111 0.777778
vt 0.888889 0.333333
vt 0.333333 0.888889
vt 0.888889 0.444444
vt 0.777778 0.333333
vt 0.777778 0.444444
vt 0.222222 0.888889
vt 0.777778 0.222222
vt 0.888889 0.555555
vt 0.000000 0.666667
vt 0.777778 0.222222
vt 0.888889 0.222222
vt 0.000000 0.777778
vt 0.777778 0.555555
vt 0.888889 0.111111
vt 0.666667 0.444444
vt 0.666667 0.666667
vt 0.777778 0.111111
vt 0.666667 0.555556
vt 0.333333 1.000000
vt 0.111111 0.888889
vt 0.666667 0.555556
vt 0.888889 0.000000
vt 0.777778 0.000000
vt 0.000000 0.888889
vt 0.444444 1.000000
vt 0.777778 0.444444
vt 0.444444 0.666667
vt 0.777778 0.666667
vt 0.444444 0.777778
vt 0.777778 0.555556
vt 0.333333 0.888889
vt 0.555555 0.666667
vt 0.111111 0.777778
vt 0.777778 0.555556
vt 0.444444 0.888889
vt 0.000000 0.777778
vt 0.555555 0.777778
vt 0.777778 0.777778
vt 0.888889 0.111111
vt 0.111111 0.777778
vt 0.666667 0.777778
vt 0.777778 0.111111
vt 0.333333 0.777778
vt 0.777778 0.333333
vt 0.222222 0.777778
vt 0.777778 0.666667
vt 0.666667 0.666667
vt 0.777778 0.444444
vt 0.333333 0.666667
vt 0.888889 0.222222
vt 0.333333 0.666667
vt 0.111111 0.888889
vt 0.333333 0.777778
vt 0.777778 0.222222
vt 0.222222 0.777778
vt 0.444444 0.666667
vt 0.666667 0.333333
vt 0.222222 0.888889
vt 0.222222 0.666667
vt 0.666667 0.444444
vt 0.444444 0.777778
vt 0.777778 0.111111
vt 0.111111 0.666667
vt 0.444444 0.777778
vt 0.777778 0.222222
vt 0.111111 0.777778
vt 0.666667 0.555556
vt 0.888889 0.444444
vt 0.555555 0.777778
vt 0.666667 0.111111
vt 0.666667 0.222222
vt 0.777778 0.444444
vt 0.666667 0.444444
vt 0.222222 0.666667
vt 0.444444 0.777778
vt 0.444444 0.888889
vt 0.333333 0.777778
vt 0.222222 0.777778
vt 0.555555 0.555556
vt 0.444444 0.888889
vt 0.888889 0.333333
vt 0.555555 0.888889
vt 0.555555 0.444444
vt 0.777778 0.333333
vt 0.333333 0.888889
vt 0.888889 0.666667
vt 0.555556 0.333333
vt 0.222222 0.666667
vt 0.777778 0.666667
vt 0.555556 0.444444
vt 0.000000 1.000000
vt 0.777778 0.888889
vt 0.222222 0.555556
vt 0.888889 0.555556
vt 0.777778 0.555556
vt 0.666667 0.888889
vt 0.111111 1.000000
vt 0.666667 0.333333
vt 0.333333 0.555556
vt 0.333333 0.666667
vt 0.333333 0.666667
vt 0.666667 0.444445
vt 0.000000 0.888889
vt 0.444444 0.555556
vt 0.777778 0.777778
vt 0.333333 0.555556
vt 0.111111 0.888889
vt 0.666667 0.777778
vt 0.444444 0.666667
vt 0.222222 1.000000
vt 1.000000 0.222222
vt 0.888889 0.333333
vt 0.111111 1.000000
vt 0.888889 0.222222
vt 0.666667 0.777778
vt 0.555556 0.333333
vt 1.000000 0.333333
vt 0.222222 0.888889
vt 0.111111 0.888889
vt 0.555556 0.444445
vt 0.666667 0.666667
vt 1.000000 0.333333
vt 0.333333 0.444444
vt 0.888889 0.444444
vt 0.333333 0.555555
vt 0.888889 0.333333
vt 0.555555 0.777778
vt 0.444444 0.444444
vt 0.444444 0.333333
vt 1.000000 0.444444
vt 0.555555 0.666667
vt 0.444444 0.444444
vt 0.444444 0.555556
s 0
usemtl マテリアル.001
f 2/4/1 3/9/1 1/1/1
f 4/11/2 7/20/2 3/7/2
f 8/24/3 5/14/3 7/19/3
f 6/17/4 1/2/4 5/13/4
f 7/21/5 1/3/5 3/8/5
f 4/12/6 6/18/6 8/22/6
f 10/28/1 11/32/1 9/25/1
f 12/34/2 15/43/2 11/30/2
f 16/47/3 13/37/3 15/42/3
f 14/40/4 9/26/4 13/36/4
f 15/44/5 9/27/5 11/31/5
f 12/35/7 14/41/7 16/45/7
f 18/51/1 19/56/1 17/48/1
f 20/58/2 23/65/2 19/54/2
f 24/68/3 21/61/3 23/65/3
f 22/64/4 17/49/4 21/60/4
f 23/66/5 17/50/5 19/55/5
f 20/59/8 22/64/8 24/67/8
f 26/72/1 27/77/1 25/69/1
f 28/79/2 31/88/2 27/75/2
f 32/92/3 29/82/3 31/87/3
f 30/85/4 25/70/4 29/81/4
f 31/89/9 25/71/9 27/76/9
f 28/80/6 30/86/6 32/90/6
f 34/96/1 35/101/1 33/93/1
f 36/103/2 39/112/2 35/99/2
f 40/116/3 37/106/3 39/111/3
f 38/109/4 33/94/4 37/105/4
f 39/113/5 33/95/5 35/100/5
f 36/104/10 38/110/10 40/114/10
f 42/120/1 43/125/1 41/117/1
f 44/127/2 47/136/2 43/123/2
f 48/140/3 45/130/3 47/135/3
f 46/133/4 41/118/4 45/129/4
f 47/137/5 41/119/5 43/124/5
f 44/128/11 46/134/11 48/138/11
f 50/144/1 51/149/1 49/141/1
f 52/151/2 55/160/2 51/147/2
f 56/164/3 53/154/3 55/159/3
f 54/157/4 49/142/4 53/153/4
f 55/161/12 49/143/12 51/148/12
f 52/152/6 54/158/6 56/162/6
f 58/168/1 59/173/1 57/165/1
f 60/175/2 63/184/2 59/171/2
f 64/188/3 61/178/3 63/183/3
f 62/181/4 57/166/4 61/177/4
f 63/185/13 57/167/13 59/172/13
f 60/176/6 62/182/6 64/186/6
f 66/192/1 67/197/1 65/189/1
f 68/199/2 71/208/2 67/195/2
f 72/212/3 69/202/3 71/207/3
f 70/205/4 65/190/4 69/201/4
f 71/209/14 65/191/14 67/196/14
f 68/200/6 70/206/6 72/210/6
f 2/4/1 4/10/1 3/9/1
f 4/11/2 8/23/2 7/20/2
f 8/24/3 6/16/3 5/14/3
f 6/17/4 2/5/4 1/2/4
f 7/21/5 5/15/5 1/3/5
f 4/12/6 2/6/6 6/18/6
f 10/28/1 12/33/1 11/32/1
f 12/34/2 16/46/2 15/43/2
f 16/47/3 14/39/3 13/37/3
f 14/40/4 10/29/4 9/26/4
f 15/44/5 13/38/5 9/27/5
f 12/35/15 10/29/15 14/41/15
f 18/51/1 20/57/1 19/56/1
f 20/58/2 24/68/2 23/65/2
f 24/68/3 22/63/3 21/61/3
f 22/64/4 18/52/4 17/49/4
f 23/66/5 21/62/5 17/50/5
f 20/59/16 18/53/16 22/64/16
f 26/72/1 28/78/1 27/77/1
f 28/79/2 32/91/2 31/88/2
f 32/92/3 30/84/3 29/82/3
f 30/85/4 26/73/4 25/70/4
f 31/89/17 29/83/17 25/71/17
f 28/80/6 26/74/6 30/86/6
f 34/96/1 36/102/1 35/101/1
f 36/103/2 40/115/2 39/112/2
f 40/116/3 38/108/3 37/106/3
f 38/109/4 34/97/4 33/94/4
f 39/113/5 37/107/5 33/95/5
f 36/104/18 34/98/18 38/110/18
f 42/120/1 44/126/1 43/125/1
f 44/127/2 48/139/2 47/136/2
f 48/140/3 46/132/3 45/130/3
f 46/133/4 42/121/4 41/118/4
f 47/137/5 45/131/5 41/119/5
f 44/128/19 42/122/19 46/134/19
f 50/144/1 52/150/1 51/149/1
f 52/151/2 56/163/2 55/160/2
f 56/164/3 54/156/3 53/154/3
f 54/157/4 50/145/4 49/142/4
f 55/161/20 53/155/20 49/143/20
f 52/152/6 50/146/6 54/158/6
f 58/168/1 60/174/1 59/173/1
f 60/175/2 64/187/2 63/184/2
f 64/188/3 62/180/3 61/178/3
f 62/181/4 58/169/4 57/166/4
f 63/185/21 61/179/21 57/167/21
f 60/176/6 58/170/6 62/182/6
f 66/192/1 68/198/1 67/197/1
f 68/199/2 72/211/2 71/208/2
f 72/212/3 70/204/3 69/202/3
f 70/205/4 66/193/4 65/190/4
f 71/209/22 69/203/22 65/191/22
f 68/200/6 66/194/6 70/206/6
